<?xml version="1.0" standalone="no"?>
<!DOCTYPE svg PUBLIC "-//W3C//DTD SVG 20010904//EN"
 "http://www.w3.org/TR/2001/REC-SVG-20010904/DTD/svg10.dtd">
<svg version="1.0" xmlns="http://www.w3.org/2000/svg"
 width="286.000000pt" height="518.000000pt" viewBox="0 0 286.000000 518.000000"
 preserveAspectRatio="xMidYMid meet">

<g transform="translate(0.000000,518.000000) scale(0.100000,-0.100000)"
fill="currentColor" stroke="none">
<path d="M128 5118 c-30 -23 -36 -57 -21 -132 8 -39 17 -78 20 -86 3 -8 7 -39
8 -68 2 -37 9 -60 23 -75 11 -12 30 -58 42 -102 36 -130 91 -297 112 -338 10
-21 16 -42 13 -47 -4 -6 -10 -33 -14 -60 -9 -56 -2 -67 53 -85 24 -8 34 -20
48 -59 19 -51 12 -81 -18 -69 -9 3 -18 -5 -25 -23 -9 -25 -5 -46 26 -136 21
-60 34 -115 31 -124 -3 -8 3 -33 14 -55 11 -21 32 -87 45 -147 14 -59 33 -127
41 -152 11 -32 13 -55 7 -78 -8 -30 -5 -37 39 -84 51 -54 54 -64 38 -146 -8
-45 -6 -60 15 -117 14 -36 25 -73 25 -83 0 -10 11 -34 25 -55 22 -31 25 -47
24 -100 -1 -51 4 -76 26 -123 20 -42 29 -81 32 -135 5 -71 7 -77 34 -93 16 -9
34 -27 40 -38 18 -34 4 -131 -30 -204 l-30 -65 16 -72 c10 -41 27 -85 42 -102
l24 -30 -34 -5 -33 -5 4 -50 c3 -27 4 -112 3 -187 -2 -126 -5 -141 -26 -175
-48 -75 -47 -78 28 -137 27 -21 30 -30 33 -95 5 -79 -7 -104 -54 -115 -24 -6
-25 -9 -23 -79 2 -51 -2 -81 -14 -103 -9 -17 -21 -79 -27 -138 -10 -96 -9
-110 7 -136 17 -29 17 -31 -2 -62 -10 -18 -18 -46 -16 -63 1 -16 -3 -49 -10
-72 -21 -78 24 -95 110 -43 42 26 52 29 77 19 16 -6 36 -16 44 -23 22 -20 136
-27 172 -11 25 10 39 10 77 -2 33 -10 70 -12 131 -8 68 5 94 3 128 -10 43 -17
43 -17 69 6 39 36 61 96 73 198 8 75 8 96 -4 119 -13 25 -13 33 5 71 10 24 16
47 13 53 -11 18 -4 198 10 241 17 49 28 148 26 230 -1 31 4 72 11 90 9 27 9
42 -3 77 -13 41 -13 48 8 106 18 47 21 74 17 115 -5 53 -7 55 -59 87 -35 21
-56 42 -60 58 -8 32 2 42 45 46 23 2 41 12 55 31 18 25 22 51 32 230 10 187
13 207 38 264 16 34 39 72 52 84 19 18 24 33 24 71 0 27 7 62 15 77 8 16 17
48 21 72 6 44 46 119 63 119 5 0 12 32 15 70 7 63 4 77 -18 126 -31 67 -33
104 -7 135 15 19 21 21 34 11 12 -10 20 -4 47 38 18 28 46 58 61 66 16 8 29
19 29 24 0 5 13 25 30 43 27 31 30 42 30 99 0 55 4 70 29 104 16 21 32 50 36
64 4 14 23 61 43 104 36 77 36 79 17 92 -64 43 -64 42 -8 49 l52 7 49 112 c70
157 69 152 32 171 -40 21 -33 41 13 38 l35 -2 7 62 c4 37 14 70 25 82 10 11
21 38 25 60 3 22 17 51 30 65 24 26 59 169 53 216 -2 16 7 32 30 51 27 23 41
53 83 176 28 81 48 154 45 162 -4 11 -22 15 -64 15 -47 0 -63 -4 -78 -21 -15
-16 -16 -23 -6 -37 20 -28 24 -41 18 -57 -7 -20 -55 -31 -75 -16 -9 6 -24 14
-34 18 -11 3 -27 25 -38 49 -10 24 -23 44 -29 44 -6 0 -28 -12 -50 -26 -51
-34 -71 -27 -63 22 6 35 5 36 -18 29 -13 -4 -34 -20 -47 -36 -35 -44 -75 -36
-84 17 -3 21 -3 21 -103 -7 -97 -28 -101 -28 -125 -10 -14 10 -33 34 -43 54
-9 21 -19 37 -22 37 -2 0 -18 -20 -34 -44 -41 -60 -62 -173 -38 -210 34 -51
-15 -200 -78 -237 -30 -18 -35 -28 -51 -97 -9 -42 -20 -106 -23 -142 -4 -40
-15 -80 -29 -103 -16 -28 -22 -54 -22 -96 0 -70 -33 -239 -55 -281 -9 -17 -24
-35 -34 -42 -16 -9 -17 -15 -7 -31 9 -16 7 -21 -11 -34 -28 -19 -30 -50 -3
-58 20 -6 29 -35 11 -35 -23 0 -39 -34 -52 -106 -12 -67 -17 -80 -41 -93 -30
-17 -34 -32 -17 -78 9 -27 6 -37 -20 -77 l-29 -47 -40 53 c-37 51 -39 57 -50
169 -7 64 -12 183 -12 266 0 161 -4 173 -52 173 l-27 0 5 83 c4 45 10 98 14
118 7 35 5 37 -26 53 -39 18 -43 39 -14 76 26 33 25 56 -3 75 -20 13 -27 33
-45 138 -27 155 -45 401 -36 505 7 80 7 81 -24 111 -25 26 -38 31 -77 31 -58
0 -109 -21 -130 -54 -24 -36 -53 -33 -138 12 -70 36 -74 37 -162 34 -49 -2
-120 -12 -157 -22 l-68 -19 -29 25 c-36 30 -80 40 -103 22z m432 -144 c0 -8
-4 -14 -9 -14 -12 0 -32 26 -25 33 10 9 34 -4 34 -19z m-270 -114 c0 -12 -28
-25 -36 -17 -9 9 6 27 22 27 8 0 14 -5 14 -10z m578 -152 c-3 -7 -11 -13 -18
-13 -7 0 -15 6 -17 13 -3 7 4 12 17 12 13 0 20 -5 18 -12z m1319 -64 c-9 -9
-28 6 -21 18 4 6 10 6 17 -1 6 -6 8 -13 4 -17z m-1317 -19 c0 -8 -7 -15 -15
-15 -16 0 -20 12 -8 23 11 12 23 8 23 -8z m1510 -90 c0 -8 -2 -15 -4 -15 -2 0
-6 7 -10 15 -3 8 -1 15 4 15 6 0 10 -7 10 -15z m-213 -30 c9 -25 -2 -27 -28
-6 l-24 20 23 1 c12 0 25 -7 29 -15z m179 -158 c4 -12 -2 -27 -17 -43 -23 -25
-110 -84 -123 -84 -3 0 -6 33 -5 73 l2 72 41 27 41 27 27 -26 c15 -15 30 -35
34 -46z m-1382 -242 c-16 -25 -26 -30 -37 -19 -10 10 17 44 36 44 16 0 16 -2
1 -25z m34 -97 c5 -21 5 -34 -1 -37 -13 -5 -37 28 -37 51 0 31 29 20 38 -14z
m62 -707 c0 -5 -7 -11 -14 -14 -10 -4 -13 -1 -9 9 6 15 23 19 23 5z m-310 -85
c0 -2 -7 -6 -15 -10 -8 -3 -15 -1 -15 4 0 6 7 10 15 10 8 0 15 -2 15 -4z m3
-151 c-3 -8 -12 -15 -19 -15 -12 0 -12 4 -4 20 12 23 32 18 23 -5z m460 -148
c52 -43 55 -57 15 -68 -26 -7 -83 13 -121 43 -18 14 -18 15 8 46 30 35 30 35
98 -21z m427 -17 c-19 -13 -30 -13 -30 0 0 6 10 10 23 10 18 0 19 -2 7 -10z
m110 -59 c0 -5 -7 -12 -16 -15 -22 -9 -24 -8 -24 9 0 8 9 15 20 15 11 0 20 -4
20 -9z m-682 -284 c3 -16 1 -17 -17 -7 -25 13 -28 33 -4 28 10 -2 19 -11 21
-21z m162 -169 c0 -17 -3 -18 -15 -8 -8 7 -15 19 -15 26 0 8 6 11 15 8 8 -4
15 -15 15 -26z m225 -379 c10 -15 -1 -23 -20 -15 -9 3 -13 10 -10 16 8 13 22
13 30 -1z m-217 -341 c14 -14 16 -48 4 -48 -20 0 -45 28 -39 44 8 19 19 20 35
4z m80 -850 c16 -16 15 -71 -2 -113 -19 -44 -49 -46 -93 -7 -30 25 -31 30 -26
80 l6 52 51 0 c29 0 57 -5 64 -12z m-313 -177 c3 -6 -4 -15 -15 -21 -16 -8
-20 -8 -20 3 0 25 23 36 35 18z m313 -118 c5 -17 -26 -29 -40 -15 -6 6 -7 15
-3 22 9 14 37 9 43 -7z"/>
</g>
</svg>
